<?xml version="1.0" encoding="UTF-8"?><svg id="Layer_2" xmlns="http://www.w3.org/2000/svg" viewBox="0 0 914 914"><defs><style>.cls-1{fill:none;stroke:#1d1d1b;stroke-miterlimit:10;stroke-width:4px;}</style></defs><g id="Layer_1-2"><line class="cls-1" x1="2" y1="142" x2="912" y2="142"/><line class="cls-1" x1="2" y1="212" x2="912" y2="212"/><line class="cls-1" x1="2" y1="282" x2="912" y2="282"/><line class="cls-1" x1="2" y1="352" x2="912" y2="352"/><line class="cls-1" x1="2" y1="422" x2="912" y2="422"/><line class="cls-1" x1="2" y1="492" x2="912" y2="492"/><line class="cls-1" x1="2" y1="562" x2="912" y2="562"/><line class="cls-1" x1="2" y1="632" x2="912" y2="632"/><line class="cls-1" x1="2" y1="702" x2="912" y2="702"/><line class="cls-1" x1="2" y1="772" x2="912" y2="772"/><line class="cls-1" x1="2" y1="72" x2="912" y2="72"/><line class="cls-1" x1="2" y1="2" x2="912" y2="2"/><line class="cls-1" x1="2" y1="842" x2="912" y2="842"/><line class="cls-1" x1="2" y1="912" x2="912" y2="912"/><line class="cls-1" x1="772" y1="2" x2="772" y2="912"/><line class="cls-1" x1="702" y1="2" x2="702" y2="912"/><line class="cls-1" x1="632" y1="2" x2="632" y2="912"/><line class="cls-1" x1="562" y1="2" x2="562" y2="912"/><line class="cls-1" x1="492" y1="2" x2="492" y2="912"/><line class="cls-1" x1="422" y1="2" x2="422" y2="912"/><line class="cls-1" x1="352" y1="2" x2="352" y2="912"/><line class="cls-1" x1="282" y1="2" x2="282" y2="912"/><line class="cls-1" x1="212" y1="2" x2="212" y2="912"/><line class="cls-1" x1="142" y1="2" x2="142" y2="912"/><line class="cls-1" x1="842" y1="2" x2="842" y2="912"/><line class="cls-1" x1="912" y1="2" x2="912" y2="912"/><line class="cls-1" x1="72" y1="2" x2="72" y2="912"/><line class="cls-1" x1="2" y1="2" x2="2" y2="912"/></g></svg>